<svg width="164" height="44" viewBox="0 0 164 44" fill="none" xmlns="http://www.w3.org/2000/svg">
<path d="M35.4007 43.5479H8.58239C4.17524 43.5479 0.603516 39.9762 0.603516 35.569V8.7508C0.603516 4.34365 4.17524 0.771912 8.58239 0.771912H35.4007C39.8078 0.771912 43.3795 4.34365 43.3795 8.7508V35.569C43.3795 39.9762 39.8078 43.5479 35.4007 43.5479Z" fill="#292F36"/>
<path d="M29.6972 22.5534C30.46 23.5099 30.8474 24.6238 30.8474 25.883C30.8474 27.7354 30.2299 29.1883 28.995 30.2175C27.76 31.2466 25.9923 31.7794 23.6918 31.7794H13.6426V10.1674H23.4497C25.6533 10.1674 27.3483 10.6517 28.547 11.6082C29.7456 12.5647 30.351 13.9328 30.351 15.7005C30.351 17.0081 29.9999 18.0857 29.3098 18.9575C28.6196 19.8292 27.7116 20.3861 26.5856 20.6525C27.9053 20.9673 28.9344 21.5969 29.6972 22.5534ZM18.8609 19.0059H22.2874C24.1035 19.0059 25.0116 18.231 25.0116 16.6812C25.0116 15.1315 24.0793 14.3566 22.2268 14.3566H18.8609V19.0059ZM25.4959 25.1565C25.4959 24.3816 25.2416 23.7763 24.7331 23.3404C24.2246 22.9045 23.4981 22.6866 22.5658 22.6866H18.873V27.5417H22.6022C24.5273 27.5296 25.4959 26.7426 25.4959 25.1565Z" fill="white"/>
<path d="M68.1628 31.7794L63.4893 23.6189H62.3027V31.7794H57.0723V10.1674H65.9955C67.7027 10.1674 69.1556 10.4579 70.3301 11.0512C71.5166 11.6445 72.4004 12.4557 72.9937 13.4848C73.587 14.514 73.8776 15.6884 73.8776 17.0202C73.8776 18.5942 73.4417 19.9261 72.5821 21.0278C71.7103 22.1296 70.4632 22.8803 68.8045 23.292L73.9381 31.7915H68.1628V31.7794ZM62.3027 20.0471H65.5354C66.5767 20.0471 67.3395 19.8171 67.8238 19.357C68.3081 18.8969 68.5623 18.2189 68.5623 17.3229C68.5623 16.4633 68.3081 15.7974 67.8117 15.301C67.3153 14.8167 66.5525 14.5624 65.5354 14.5624H62.3027V20.0471Z" fill="#292F36"/>
<path d="M97.5364 27.8444H89.4365L88.0925 31.7915H82.5957L90.5141 10.3369H96.5315L104.45 31.7915H98.8925L97.5364 27.8444ZM96.1925 23.861L93.5046 15.9184L90.7804 23.861H96.1925Z" fill="#292F36"/>
<path d="M133.302 31.7794H128.072L119.33 18.5095V31.7794H114.1V10.1674H119.33L128.072 23.5583V10.1674H133.302V31.7794Z" fill="#292F36"/>
<path d="M162.625 26.5731C161.717 28.2077 160.41 29.4911 158.715 30.4112C157.008 31.3314 155.01 31.7915 152.709 31.7915H144.549V10.1795H152.709C155.034 10.1795 157.044 10.6275 158.727 11.5234C160.422 12.4194 161.717 13.6786 162.625 15.3131C163.533 16.9476 163.981 18.8122 163.981 20.9431C163.981 23.0498 163.521 24.9265 162.625 26.5731ZM156.995 25.4835C158.121 24.4059 158.69 22.8803 158.69 20.931C158.69 18.9696 158.121 17.4562 156.995 16.3786C155.869 15.301 154.283 14.7562 152.237 14.7562H149.767V27.1059H152.237C154.283 27.1059 155.869 26.5731 156.995 25.4835Z" fill="#292F36"/>
</svg>
